<svg width="286" height="36" viewBox="0 0 286 36" fill="none" xmlns="http://www.w3.org/2000/svg">
<path d="M27.1193 10.0682C23.7846 10.0682 21.3325 11.3943 19.8123 13.6044C18.4392 11.3452 16.1833 10.0682 13.1428 10.0682C10.0042 10.0682 7.69933 11.296 6.3262 13.3588V10.7558H0V35.3124H6.3262V21.5116C6.3262 17.8281 8.23878 15.9618 10.936 15.9618C13.5842 15.9618 15.0554 17.7299 15.0554 20.6276V35.3124H21.3816V21.5116C21.3816 17.8281 23.147 15.9618 25.9423 15.9618C28.5905 15.9618 30.0617 17.7299 30.0617 20.6276V35.3124H36.3879V20.1855C36.3879 14.0464 32.7099 10.0682 27.1193 10.0682Z" fill="#2C2C2E"/>
<path d="M59.4154 10.7558V13.6535C57.65 11.4434 55.0018 10.0682 51.4219 10.0682C44.8995 10.0682 39.5051 15.7162 39.5051 23.0341C39.5051 30.352 44.8995 36 51.4219 36C55.0018 36 57.65 34.6248 59.4154 32.4147V35.3124H65.7416V10.7558H59.4154ZM52.5988 29.9591C48.7246 29.9591 45.8313 27.1596 45.8313 23.0341C45.8313 18.9086 48.7246 16.1091 52.5988 16.1091C56.5221 16.1091 59.4154 18.9086 59.4154 23.0341C59.4154 27.1596 56.5221 29.9591 52.5988 29.9591Z" fill="#2C2C2E"/>
<path d="M93.105 35.3124L82.9536 22.8868L92.8108 10.7558H85.2585L76.8236 21.5607V0.933151H70.4974V35.3124H76.8236V24.1637L85.7489 35.3124H93.105Z" fill="#2C2C2E"/>
<path d="M98.8554 25.6371H117.344C117.491 24.8022 117.589 23.9673 117.589 23.0341C117.589 15.8145 112.44 10.0682 105.182 10.0682C97.4822 10.0682 92.2349 15.7162 92.2349 23.0341C92.2349 30.352 97.4332 36 105.672 36C110.38 36 114.058 34.0846 116.363 30.7449L111.263 27.7981C110.184 29.2224 108.222 30.2537 105.77 30.2537C102.435 30.2537 99.7381 28.8786 98.8554 25.6371ZM98.7573 20.7258C99.4929 17.5825 101.798 15.7653 105.182 15.7653C107.83 15.7653 110.478 17.1896 111.263 20.7258H98.7573Z" fill="#2C2C2E"/>
<path d="M127.35 14.9795V10.7558H121.024V35.3124H127.35V23.5744C127.35 18.4175 131.519 16.9441 134.805 17.337V10.2647C131.715 10.2647 128.626 11.6398 127.35 14.9795Z" fill="#2C2C2E"/>
<path d="M159.476 36C166.685 36 172.472 30.352 172.472 23.0341C172.472 15.7162 166.685 10.0682 159.476 10.0682C152.267 10.0682 146.529 15.7162 146.529 23.0341C146.529 30.352 152.267 36 159.476 36ZM159.476 29.8117C155.749 29.8117 152.856 27.0123 152.856 23.0341C152.856 19.0559 155.749 16.2565 159.476 16.2565C163.252 16.2565 166.146 19.0559 166.146 23.0341C166.146 27.0123 163.252 29.8117 159.476 29.8117Z" fill="#2C2C2E"/>
<path d="M188.367 6.33561V0.245566C180.569 -0.245566 176.842 3.73261 176.842 10.5102V10.7558H173.312V16.8458H176.842V35.3124H183.169V16.8458H188.367V10.7558H183.169V10.5102C183.169 7.17053 185.081 6.09004 188.367 6.33561Z" fill="#2C2C2E"/>
<path d="M214.592 16.8458V10.7558H209.05V3.87995L202.724 5.79536V10.7558H198.458V16.8458H202.724V27.0614C202.724 33.6917 205.716 36.2947 214.592 35.3124V29.5662C210.963 29.7626 209.05 29.7135 209.05 27.0614V16.8458H214.592Z" fill="#2C2C2E"/>
<path d="M231.705 10.0682C228.419 10.0682 225.869 11.296 224.398 13.5061V0.933151H218.071V35.3124H224.398V22.0518C224.398 17.779 226.703 15.9618 229.792 15.9618C232.636 15.9618 234.647 17.6808 234.647 21.0205V35.3124H240.973V20.2347C240.973 13.7026 236.903 10.0682 231.705 10.0682Z" fill="#2C2C2E"/>
<path d="M248.533 7.809C250.691 7.809 252.456 6.04093 252.456 3.92906C252.456 1.81719 250.691 0 248.533 0C246.424 0 244.659 1.81719 244.659 3.92906C244.659 6.04093 246.424 7.809 248.533 7.809ZM245.394 35.3124H251.72V10.7558H245.394V35.3124Z" fill="#2C2C2E"/>
<path d="M262.174 17.7299C262.174 16.4038 263.449 15.7162 265.018 15.7162C266.833 15.7162 268.206 16.6494 268.942 18.221L274.336 15.2742C272.423 11.8854 268.991 10.0682 265.018 10.0682C259.967 10.0682 255.701 12.8677 255.701 17.8772C255.701 26.5211 268.353 24.5566 268.353 28.1419C268.353 29.5662 266.98 30.2537 264.969 30.2537C262.517 30.2537 260.85 29.075 260.163 27.0614L254.671 30.1555C256.436 33.9372 260.065 36 264.969 36C270.217 36 274.826 33.4461 274.826 28.1419C274.826 19.105 262.174 21.3643 262.174 17.7299Z" fill="#2C2C2E"/>
<path d="M279.331 23.7708H284.333L285.608 10.7558V0.933151H278.006V10.7558L279.331 23.7708ZM281.832 35.9509C284.136 35.9509 286 34.0846 286 31.7763C286 29.4679 284.136 27.6016 281.832 27.6016C279.527 27.6016 277.663 29.4679 277.663 31.7763C277.663 34.0846 279.527 35.9509 281.832 35.9509Z" fill="#2C2C2E"/>
</svg>
