<svg width="287" height="37" viewBox="0 0 287 37" fill="none" xmlns="http://www.w3.org/2000/svg">
<path d="M27.9513 10.556C24.6166 10.556 22.1646 11.8821 20.6443 14.0922C19.2712 11.8329 17.0153 10.556 13.9748 10.556C10.8363 10.556 8.53136 11.7838 7.15823 13.8466V11.2436H0.832031V35.8002H7.15823V21.9994C7.15823 18.3159 9.07081 16.4496 11.768 16.4496C14.4162 16.4496 15.8874 18.2177 15.8874 21.1153V35.8002H22.2136V21.9994C22.2136 18.3159 23.9791 16.4496 26.7744 16.4496C29.4225 16.4496 30.8938 18.2177 30.8938 21.1153V35.8002H37.22V20.6733C37.22 14.5342 33.5419 10.556 27.9513 10.556Z" fill="white"/>
<path d="M60.2475 11.2436V14.1413C58.482 11.9312 55.8338 10.556 52.2539 10.556C45.7315 10.556 40.3371 16.204 40.3371 23.5219C40.3371 30.8398 45.7315 36.4878 52.2539 36.4878C55.8338 36.4878 58.482 35.1126 60.2475 32.9025V35.8002H66.5737V11.2436H60.2475ZM53.4309 30.4469C49.5567 30.4469 46.6633 27.6474 46.6633 23.5219C46.6633 19.3964 49.5567 16.5969 53.4309 16.5969C57.3541 16.5969 60.2475 19.3964 60.2475 23.5219C60.2475 27.6474 57.3541 30.4469 53.4309 30.4469Z" fill="white"/>
<path d="M93.937 35.8002L83.7857 23.3746L93.6428 11.2436H86.0906L77.6556 22.0485V1.42094H71.3294V35.8002H77.6556V24.6515L86.581 35.8002H93.937Z" fill="white"/>
<path d="M99.6874 26.1249H118.176C118.323 25.29 118.421 24.455 118.421 23.5219C118.421 16.3023 113.272 10.556 106.014 10.556C98.3143 10.556 93.0669 16.204 93.0669 23.5219C93.0669 30.8398 98.2652 36.4878 106.504 36.4878C111.212 36.4878 114.89 34.5724 117.195 31.2327L112.095 28.2859C111.016 29.7102 109.054 30.7415 106.602 30.7415C103.267 30.7415 100.57 29.3664 99.6874 26.1249ZM99.5893 21.2136C100.325 18.0703 102.63 16.2531 106.014 16.2531C108.662 16.2531 111.31 17.6774 112.095 21.2136H99.5893Z" fill="white"/>
<path d="M128.183 15.4673V11.2436H121.856V35.8002H128.183V24.0621C128.183 18.9053 132.351 17.4319 135.637 17.8248V10.7525C132.547 10.7525 129.458 12.1276 128.183 15.4673Z" fill="white"/>
<path d="M160.308 36.4878C167.517 36.4878 173.304 30.8398 173.304 23.5219C173.304 16.204 167.517 10.556 160.308 10.556C153.099 10.556 147.361 16.204 147.361 23.5219C147.361 30.8398 153.099 36.4878 160.308 36.4878ZM160.308 30.2995C156.581 30.2995 153.688 27.5001 153.688 23.5219C153.688 19.5437 156.581 16.7443 160.308 16.7443C164.084 16.7443 166.978 19.5437 166.978 23.5219C166.978 27.5001 164.084 30.2995 160.308 30.2995Z" fill="white"/>
<path d="M189.199 6.8234V0.733359C181.402 0.242227 177.674 4.2204 177.674 10.998V11.2436H174.144V17.3336H177.674V35.8002H184.001V17.3336H189.199V11.2436H184.001V10.998C184.001 7.65833 185.913 6.57783 189.199 6.8234Z" fill="white"/>
<path d="M215.424 17.3336V11.2436H209.882V4.36774L203.556 6.28316V11.2436H199.29V17.3336H203.556V27.5492C203.556 34.1795 206.548 36.7825 215.424 35.8002V30.054C211.795 30.2504 209.882 30.2013 209.882 27.5492V17.3336H215.424Z" fill="white"/>
<path d="M232.537 10.556C229.251 10.556 226.701 11.7838 225.23 13.9939V1.42094H218.903V35.8002H225.23V22.5396C225.23 18.2668 227.535 16.4496 230.624 16.4496C233.468 16.4496 235.479 18.1686 235.479 21.5083V35.8002H241.805V20.7224C241.805 14.1904 237.735 10.556 232.537 10.556Z" fill="white"/>
<path d="M249.365 8.2968C251.523 8.2968 253.288 6.52872 253.288 4.41685C253.288 2.30498 251.523 0.487793 249.365 0.487793C247.256 0.487793 245.491 2.30498 245.491 4.41685C245.491 6.52872 247.256 8.2968 249.365 8.2968ZM246.226 35.8002H252.552V11.2436H246.226V35.8002Z" fill="white"/>
<path d="M263.006 18.2177C263.006 16.8916 264.281 16.204 265.85 16.204C267.665 16.204 269.038 17.1372 269.774 18.7088L275.168 15.762C273.256 12.3732 269.823 10.556 265.85 10.556C260.799 10.556 256.533 13.3555 256.533 18.365C256.533 27.0089 269.185 25.0444 269.185 28.6297C269.185 30.054 267.812 30.7415 265.801 30.7415C263.349 30.7415 261.682 29.5628 260.995 27.5492L255.503 30.6433C257.268 34.425 260.897 36.4878 265.801 36.4878C271.049 36.4878 275.658 33.9339 275.658 28.6297C275.658 19.5928 263.006 21.8521 263.006 18.2177Z" fill="white"/>
<path d="M280.163 24.2586H285.165L286.44 11.2436V1.42094H278.838V11.2436L280.163 24.2586ZM282.664 36.4387C284.968 36.4387 286.832 34.5724 286.832 32.2641C286.832 29.9557 284.968 28.0894 282.664 28.0894C280.359 28.0894 278.495 29.9557 278.495 32.2641C278.495 34.5724 280.359 36.4387 282.664 36.4387Z" fill="white"/>
</svg>
