<svg width="26" height="26" viewBox="0 0 26 26" fill="none" xmlns="http://www.w3.org/2000/svg">
<path fill-rule="evenodd" clip-rule="evenodd" d="M25.5001 1.22326C25.5001 0.823815 25.1763 0.5 24.7768 0.5H18.0001C17.1716 0.5 16.5001 1.17157 16.5001 2C16.5001 2.82843 17.1716 3.5 18.0001 3.5H20.3696L12.4194 11.4502C11.8337 12.036 11.8337 12.9857 12.4194 13.5715C13.0052 14.1573 13.955 14.1573 14.5408 13.5715L22.5001 5.61219V8C22.5001 8.82843 23.1716 9.5 24.0001 9.5C24.8285 9.5 25.5001 8.82843 25.5001 8V1.22326ZM6 2.49992C2.96243 2.49992 0.5 4.96236 0.5 7.99992V19.9999C0.5 23.0375 2.96243 25.4999 6 25.4999H18C21.0376 25.4999 23.5 23.0375 23.5 19.9999V13.9999C23.5 13.1715 22.8284 12.4999 22 12.4999C21.1716 12.4999 20.5 13.1715 20.5 13.9999V19.9999C20.5 21.3806 19.3807 22.4999 18 22.4999H6C4.61929 22.4999 3.5 21.3806 3.5 19.9999V7.99992C3.5 6.61921 4.61929 5.49992 6 5.49992H12C12.8284 5.49992 13.5 4.82835 13.5 3.99992C13.5 3.1715 12.8284 2.49992 12 2.49992H6Z" fill="#2C2C2E"/>
</svg>
