<svg width="286" height="108" viewBox="0 0 286 108" fill="none" xmlns="http://www.w3.org/2000/svg">
<path d="M27.1193 82.0682C23.7846 82.0682 21.3325 83.3943 19.8123 85.6044C18.4392 83.3452 16.1833 82.0682 13.1428 82.0682C10.0042 82.0682 7.69933 83.296 6.3262 85.3588V82.7558H0V107.312H6.3262V93.5116C6.3262 89.8281 8.23878 87.9618 10.936 87.9618C13.5842 87.9618 15.0554 89.7299 15.0554 92.6276V107.312H21.3816V93.5116C21.3816 89.8281 23.147 87.9618 25.9423 87.9618C28.5905 87.9618 30.0617 89.7299 30.0617 92.6276V107.312H36.3879V92.1855C36.3879 86.0464 32.7099 82.0682 27.1193 82.0682Z" fill="white"/>
<path d="M59.4154 82.7558V85.6535C57.65 83.4434 55.0018 82.0682 51.4219 82.0682C44.8995 82.0682 39.5051 87.7162 39.5051 95.0341C39.5051 102.352 44.8995 108 51.4219 108C55.0018 108 57.65 106.625 59.4154 104.415V107.312H65.7416V82.7558H59.4154ZM52.5988 101.959C48.7246 101.959 45.8313 99.1596 45.8313 95.0341C45.8313 90.9086 48.7246 88.1091 52.5988 88.1091C56.5221 88.1091 59.4154 90.9086 59.4154 95.0341C59.4154 99.1596 56.5221 101.959 52.5988 101.959Z" fill="white"/>
<path d="M93.105 107.312L82.9536 94.8868L92.8108 82.7558H85.2585L76.8236 93.5607V72.9332H70.4974V107.312H76.8236V96.1637L85.7489 107.312H93.105Z" fill="white"/>
<path d="M98.8554 97.6371H117.344C117.491 96.8022 117.589 95.9673 117.589 95.0341C117.589 87.8145 112.44 82.0682 105.182 82.0682C97.4822 82.0682 92.2349 87.7162 92.2349 95.0341C92.2349 102.352 97.4332 108 105.672 108C110.38 108 114.058 106.085 116.363 102.745L111.263 99.7981C110.184 101.222 108.222 102.254 105.77 102.254C102.435 102.254 99.7381 100.879 98.8554 97.6371ZM98.7573 92.7258C99.4929 89.5825 101.798 87.7653 105.182 87.7653C107.83 87.7653 110.478 89.1896 111.263 92.7258H98.7573Z" fill="white"/>
<path d="M127.35 86.9795V82.7558H121.024V107.312H127.35V95.5744C127.35 90.4175 131.519 88.9441 134.805 89.337V82.2647C131.715 82.2647 128.626 83.6398 127.35 86.9795Z" fill="white"/>
<path d="M159.476 108C166.685 108 172.472 102.352 172.472 95.0341C172.472 87.7162 166.685 82.0682 159.476 82.0682C152.267 82.0682 146.529 87.7162 146.529 95.0341C146.529 102.352 152.267 108 159.476 108ZM159.476 101.812C155.749 101.812 152.856 99.0123 152.856 95.0341C152.856 91.0559 155.749 88.2565 159.476 88.2565C163.252 88.2565 166.146 91.0559 166.146 95.0341C166.146 99.0123 163.252 101.812 159.476 101.812Z" fill="white"/>
<path d="M188.367 78.3356V72.2456C180.569 71.7544 176.842 75.7326 176.842 82.5102V82.7558H173.312V88.8458H176.842V107.312H183.169V88.8458H188.367V82.7558H183.169V82.5102C183.169 79.1705 185.081 78.09 188.367 78.3356Z" fill="white"/>
<path d="M214.592 88.8458V82.7558H209.05V75.8799L202.724 77.7954V82.7558H198.458V88.8458H202.724V99.0614C202.724 105.692 205.716 108.295 214.592 107.312V101.566C210.963 101.763 209.05 101.714 209.05 99.0614V88.8458H214.592Z" fill="white"/>
<path d="M231.705 82.0682C228.419 82.0682 225.869 83.296 224.398 85.5061V72.9332H218.071V107.312H224.398V94.0518C224.398 89.779 226.703 87.9618 229.792 87.9618C232.636 87.9618 234.647 89.6808 234.647 93.0205V107.312H240.973V92.2347C240.973 85.7026 236.903 82.0682 231.705 82.0682Z" fill="white"/>
<path d="M248.533 79.809C250.691 79.809 252.456 78.0409 252.456 75.9291C252.456 73.8172 250.691 72 248.533 72C246.424 72 244.659 73.8172 244.659 75.9291C244.659 78.0409 246.424 79.809 248.533 79.809ZM245.394 107.312H251.72V82.7558H245.394V107.312Z" fill="white"/>
<path d="M262.174 89.7299C262.174 88.4038 263.449 87.7162 265.018 87.7162C266.833 87.7162 268.206 88.6494 268.942 90.221L274.336 87.2742C272.423 83.8854 268.991 82.0682 265.018 82.0682C259.967 82.0682 255.701 84.8677 255.701 89.8772C255.701 98.5211 268.353 96.5566 268.353 100.142C268.353 101.566 266.98 102.254 264.969 102.254C262.517 102.254 260.85 101.075 260.163 99.0614L254.671 102.156C256.436 105.937 260.065 108 264.969 108C270.217 108 274.826 105.446 274.826 100.142C274.826 91.105 262.174 93.3643 262.174 89.7299Z" fill="white"/>
<path d="M279.331 95.7708H284.333L285.608 82.7558V72.9332H278.006V82.7558L279.331 95.7708ZM281.832 107.951C284.136 107.951 286 106.085 286 103.776C286 101.468 284.136 99.6016 281.832 99.6016C279.527 99.6016 277.663 101.468 277.663 103.776C277.663 106.085 279.527 107.951 281.832 107.951Z" fill="white"/>
<rect x="114" width="58" height="58" rx="29" fill="#FF5881"/>
<path d="M137.275 41.3931L139.971 29.6968C140.342 28.0712 140.527 26.743 140.527 25.7121C140.527 25.1967 140.48 24.7539 140.388 24.3839C139.952 22.6394 138.96 21.7671 137.414 21.7671C135.921 21.7671 134.533 22.6394 133.251 24.3839C132.458 25.4676 131.771 27.2386 131.189 29.6968C130.846 31.1506 130.674 32.4325 130.674 33.5427C130.674 34.0845 130.714 34.5735 130.793 35.0097C131.11 36.741 131.996 37.8842 133.449 38.4393L131.288 41.3931H131.09C129.015 40.4944 127.687 38.8357 127.106 36.4172C126.881 35.4921 126.769 34.5141 126.769 33.4832C126.769 32.307 126.921 31.0448 127.225 29.6968C127.846 26.9743 128.837 24.7341 130.198 22.9764C132.577 19.9234 135.247 18.397 138.207 18.397C140.837 18.397 142.674 19.6129 143.718 22.0446C145.899 19.6129 148.304 18.397 150.934 18.397C153.855 18.397 155.811 19.9234 156.802 22.9764C157.067 23.7958 157.199 24.7209 157.199 25.7518C157.199 26.9544 157.027 28.2694 156.683 29.6968C155.943 32.8951 154.06 35.4062 151.033 37.23H155.93L155.89 37.4282L153.67 40.6001H144.392L144.432 40.4019L146.652 37.23C148.529 36.1066 149.87 35.0229 150.677 33.9788C151.681 32.6968 152.362 31.2695 152.718 29.6968C153.089 28.0976 153.274 26.7826 153.274 25.7518C153.274 25.2099 153.221 24.7539 153.115 24.3839C152.679 22.6394 151.688 21.7671 150.141 21.7671C148.648 21.7671 147.26 22.6394 145.978 24.3839C145.185 25.4676 144.505 27.2386 143.936 29.6968L141.657 39.6089L137.474 41.3931H137.275Z" fill="white"/>
</svg>
