<svg width="28" height="28" viewBox="0 0 28 28" fill="none" xmlns="http://www.w3.org/2000/svg">
<path fill-rule="evenodd" clip-rule="evenodd" d="M14 28C21.732 28 28 21.732 28 14C28 6.26801 21.732 0 14 0C6.26801 0 0 6.26801 0 14C0 21.732 6.26801 28 14 28ZM15 20C15 20.5523 14.5523 21 14 21C13.4477 21 13 20.5523 13 20V15H8C7.44772 15 7 14.5523 7 14C7 13.4477 7.44772 13 8 13H13V8C13 7.44769 13.4477 7 14 7C14.5523 7 15 7.44769 15 8V13H20C20.5523 13 21 13.4477 21 14C21 14.5523 20.5523 15 20 15H15V20Z" fill="#FF5881"/>
</svg>
